#N canvas 362 391 1272 762 10;
#X floatatom 336 174 5 0 0 0 - - -, f 5;
#X floatatom 642 102 5 0 0 0 - - -, f 5;
#X floatatom 501 346 5 0 0 0 - - -, f 5;
#X obj 506 201 +;
#X obj 508 37 bng 15 250 50 0 empty empty empty 17 7 0 10 -262144 -1
-1;
#X floatatom 765 195 5 0 0 0 - - -, f 5;
#X floatatom 931 43 5 0 0 0 - - -, f 5;
#X floatatom 943 355 5 0 0 0 - - -, f 5;
#X obj 943 212 +;
#X obj 931 118 t b f;
#X connect 0 0 3 0;
#X connect 1 0 3 1;
#X connect 3 0 2 0;
#X connect 4 0 0 0;
#X connect 4 0 1 0;
#X connect 5 0 8 0;
#X connect 6 0 9 0;
#X connect 8 0 7 0;
#X connect 9 0 5 0;
#X connect 9 1 8 1;
