#N canvas 1116 183 450 300 10;
#N canvas 1116 545 450 282 synth 1;
#X obj 93 31 inlet;
#X obj 215 217 outlet~;
#X obj 93 121 osc~;
#X obj 133 121 osc~;
#X obj 188 124 osc~;
#X obj 239 123 osc~;
#X obj 294 129 osc~;
#X obj 131 83 * 2;
#X obj 187 83 * 3;
#X obj 239 85 * 4;
#X obj 295 89 * 5;
#X obj 81 166 *~ 1;
#X obj 174 166 *~ 0.5;
#X obj 128 167 *~ 0.7;
#X obj 229 168 *~ 0.3;
#X obj 283 166 *~ 0.2;
#X connect 0 0 2 0;
#X connect 0 0 7 0;
#X connect 0 0 8 0;
#X connect 0 0 9 0;
#X connect 0 0 10 0;
#X connect 2 0 11 0;
#X connect 3 0 13 0;
#X connect 4 0 12 0;
#X connect 5 0 14 0;
#X connect 6 0 15 0;
#X connect 7 0 3 0;
#X connect 8 0 4 0;
#X connect 9 0 5 0;
#X connect 10 0 6 0;
#X connect 11 0 1 0;
#X connect 12 0 1 0;
#X connect 13 0 1 0;
#X connect 14 0 1 0;
#X connect 15 0 1 0;
#X restore 224 157 pd synth;
#X obj 245 236 dac~;
#X obj 237 23 hsl 128 15 0 127 0 0 empty empty empty -2 -8 0 10 -262144
-1 -1 0 1;
#X obj 237 76 mtof;
#N canvas 596 185 450 300 pattern120 1;
#X obj 47 29 inlet;
#X obj 51 112 tabread notes1;
#X obj 50 186 outlet;
#N canvas 0 50 450 250 (subpatch) 0;
#X array notes1 6 float 3;
#A 0 39.6 15.3005 44.1002 61.1998 35.1004 55.7998;
#X coords 0 126 6 0 200 140 1 0 0;
#X restore 192 50 graph;
#X obj 53 75 % 6;
#X floatatom 97 75 5 0 0 0 - - -;
#X floatatom 103 153 5 0 0 0 - - -;
#X obj 50 147 1;
#X connect 0 0 4 0;
#X connect 0 0 5 0;
#X connect 1 0 7 0;
#X connect 1 0 6 0;
#X connect 4 0 1 0;
#X connect 7 0 2 0;
#X restore 48 235 pd pattern120;
#X obj 48 44 metro 250;
#X obj 48 14 tgl 15 0 empty empty empty 17 7 0 10 -262144 -1 -1 1 1
;
#X obj 91 74 bng 15 250 50 0 empty empty empty 17 7 0 10 -262144 -1
-1;
#X obj 48 106 f;
#X obj 99 105 + 1;
#X floatatom 101 142 5 0 0 0 - - -;
#X obj 48 159 % 4;
#X floatatom 102 185 5 0 0 0 - - -;
#N canvas 593 561 450 300 pattern_freq 1;
#X obj 47 29 inlet;
#X obj 50 186 outlet;
#N canvas 0 50 450 250 (subpatch) 0;
#X array freq1 6 float 3;
#A 0 39.6 15.3005 44.1002 61.1998 35.1004 55.7998;
#X coords 0 126 6 0 200 140 1 0 0;
#X restore 192 50 graph;
#X floatatom 97 75 5 0 0 0 - - -;
#X floatatom 103 153 5 0 0 0 - - -;
#X obj 50 147 1;
#X obj 51 112 tabread freq1;
#X obj 53 75 % 5;
#X connect 0 0 3 0;
#X connect 0 0 7 0;
#X connect 5 0 1 0;
#X connect 6 0 5 0;
#X connect 6 0 4 0;
#X connect 7 0 6 0;
#X restore 314 115 pd pattern_freq;
#X obj 241 194 hip~;
#X connect 0 0 14 0;
#X connect 2 0 3 0;
#X connect 3 0 0 0;
#X connect 4 0 3 0;
#X connect 5 0 7 0;
#X connect 5 0 8 0;
#X connect 6 0 5 0;
#X connect 8 0 9 0;
#X connect 8 0 10 0;
#X connect 8 0 11 0;
#X connect 8 0 13 0;
#X connect 9 0 8 1;
#X connect 11 0 12 0;
#X connect 11 0 4 0;
#X connect 13 0 14 1;
#X connect 14 0 1 0;
#X connect 14 0 1 1;
