#N canvas 519 199 450 632 10;
#N canvas 977 199 724 632 ctof 1;
#X obj 120 40 inlet;
#X obj 120 203 outlet;
#X obj 120 76 * 9;
#X obj 120 116 / 5;
#X obj 119 157 + 32;
#X connect 0 0 2 0;
#X connect 2 0 3 0;
#X connect 3 0 4 0;
#X connect 4 0 1 0;
#X restore 70 89 pd ctof;
#X floatatom 70 32 5 0 0 0 - - -;
#X floatatom 70 157 5 0 0 0 - - -;
#X connect 0 0 2 0;
#X connect 1 0 0 0;
