#N canvas 46 177 599 701 10;
#X obj 48 18 inlet;
#X obj 97 72 mtof;
#X obj 162 107 *;
#X obj 106 186 osc~;
#X obj 134 110 osc~;
#X obj 134 129 *~;
#X obj 134 91 *;
#X obj 162 120 sig~;
#X obj 105 141 +~;
#X obj 130 49 bang;
#X obj 197 20 inlet;
#X obj 207 47 inlet;
#X obj 54 53 f;
#X obj 113 246 outlet~;
#X connect 0 0 12 0;
#X connect 1 0 6 0;
#X connect 1 0 8 0;
#X connect 2 0 7 0;
#X connect 3 0 13 0;
#X connect 4 0 5 0;
#X connect 5 0 8 1;
#X connect 6 0 4 0;
#X connect 6 0 2 0;
#X connect 7 0 5 1;
#X connect 8 0 3 0;
#X connect 9 0 12 0;
#X connect 10 0 9 0;
#X connect 10 0 6 1;
#X connect 11 0 9 0;
#X connect 11 0 2 1;
#X connect 12 0 1 0;
